<svg width="198" height="44" viewBox="0 0 198 44" fill="none" xmlns="http://www.w3.org/2000/svg">
<path d="M10.5734 34.551C8.07807 34.551 6.04507 34 4.47441 32.898C2.90374 31.796 1.94107 30.2443 1.58641 28.243L5.65241 27.616C5.90574 28.68 6.48841 29.5223 7.40041 30.143C8.32507 30.751 9.47141 31.055 10.8394 31.055C12.0807 31.055 13.0497 30.8017 13.7464 30.295C14.4557 29.7883 14.8104 29.0917 14.8104 28.205C14.8104 27.6857 14.6837 27.2677 14.4304 26.951C14.1897 26.6217 13.6767 26.3113 12.8914 26.02C12.1061 25.7287 10.9091 25.3677 9.30041 24.937C7.53974 24.481 6.14007 23.9933 5.10141 23.474C4.07541 22.942 3.34074 22.3277 2.89741 21.631C2.46674 20.9217 2.25141 20.0667 2.25141 19.066C2.25141 17.8247 2.58074 16.7417 3.23941 15.817C3.89807 14.8923 4.82274 14.1767 6.01341 13.67C7.21674 13.1633 8.62274 12.91 10.2314 12.91C11.8021 12.91 13.2017 13.157 14.4304 13.651C15.6591 14.145 16.6534 14.848 17.4134 15.76C18.1734 16.6593 18.6294 17.717 18.7814 18.933L14.7154 19.674C14.5761 18.686 14.1137 17.907 13.3284 17.337C12.5431 16.767 11.5234 16.4567 10.2694 16.406C9.06607 16.3553 8.09074 16.558 7.34341 17.014C6.59607 17.4573 6.22241 18.0717 6.22241 18.857C6.22241 19.313 6.36174 19.6993 6.64041 20.016C6.93174 20.3327 7.48907 20.6367 8.31241 20.928C9.13574 21.2193 10.3517 21.5677 11.9604 21.973C13.6831 22.4163 15.0511 22.9103 16.0644 23.455C17.0777 23.987 17.7997 24.6267 18.2304 25.374C18.6737 26.1087 18.8954 27.0017 18.8954 28.053C18.8954 30.0797 18.1544 31.6693 16.6724 32.822C15.2031 33.9747 13.1701 34.551 10.5734 34.551ZM32.2005 34.57C30.1611 34.57 28.3688 34.1267 26.8235 33.24C25.2908 32.3407 24.0938 31.093 23.2325 29.497C22.3838 27.8883 21.9595 26.0263 21.9595 23.911C21.9595 21.669 22.3775 19.7247 23.2135 18.078C24.0621 16.4313 25.2401 15.1583 26.7475 14.259C28.2548 13.3597 30.0091 12.91 32.0105 12.91C34.1005 12.91 35.8801 13.3977 37.3495 14.373C38.8188 15.3357 39.9145 16.71 40.6365 18.496C41.3711 20.282 41.6625 22.4037 41.5105 24.861H37.5395V23.417C37.5141 21.0357 37.0581 19.275 36.1715 18.135C35.2975 16.995 33.9611 16.425 32.1625 16.425C30.1738 16.425 28.6791 17.052 27.6785 18.306C26.6778 19.56 26.1775 21.3713 26.1775 23.74C26.1775 25.9947 26.6778 27.7427 27.6785 28.984C28.6791 30.2127 30.1231 30.827 32.0105 30.827C33.2518 30.827 34.3221 30.5483 35.2215 29.991C36.1335 29.421 36.8428 28.6103 37.3495 27.559L41.2445 28.794C40.4465 30.6307 39.2368 32.0557 37.6155 33.069C35.9941 34.0697 34.1891 34.57 32.2005 34.57ZM24.8855 24.861V21.764H39.5345V24.861H24.8855ZM54.5513 34.57C52.4486 34.57 50.6626 34.1013 49.1933 33.164C47.7239 32.2267 46.5966 30.941 45.8113 29.307C45.0386 27.673 44.6459 25.8173 44.6333 23.74C44.6459 21.6247 45.0513 19.7563 45.8493 18.135C46.6473 16.501 47.7873 15.2217 49.2693 14.297C50.7513 13.3723 52.5309 12.91 54.6083 12.91C56.8503 12.91 58.7629 13.4673 60.3463 14.582C61.9423 15.6967 62.9936 17.223 63.5003 19.161L59.5483 20.301C59.1556 19.1483 58.5096 18.2553 57.6103 17.622C56.7236 16.976 55.7039 16.653 54.5513 16.653C53.2466 16.653 52.1763 16.9633 51.3403 17.584C50.5043 18.192 49.8836 19.028 49.4783 20.092C49.0729 21.156 48.8639 22.372 48.8513 23.74C48.8639 25.8553 49.3453 27.5653 50.2953 28.87C51.2579 30.1747 52.6766 30.827 54.5513 30.827C55.8306 30.827 56.8629 30.5357 57.6483 29.953C58.4463 29.3577 59.0543 28.509 59.4723 27.407L63.5003 28.357C62.8289 30.3583 61.7206 31.8973 60.1753 32.974C58.6299 34.038 56.7553 34.57 54.5513 34.57ZM67.3709 34V13.48H70.9049V18.458L70.4109 17.812C70.6643 17.1533 70.9936 16.5517 71.3989 16.007C71.8043 15.4497 72.2729 14.9937 72.8049 14.639C73.3243 14.259 73.9006 13.9677 74.5339 13.765C75.1799 13.5497 75.8386 13.423 76.5099 13.385C77.1813 13.3343 77.8273 13.366 78.4479 13.48V17.204C77.7766 17.0267 77.0293 16.976 76.2059 17.052C75.3953 17.128 74.6479 17.3877 73.9639 17.831C73.3179 18.249 72.8049 18.7557 72.4249 19.351C72.0576 19.9463 71.7916 20.6113 71.6269 21.346C71.4623 22.068 71.3799 22.8343 71.3799 23.645V34H67.3709ZM90.7962 34.57C88.7568 34.57 86.9645 34.1267 85.4192 33.24C83.8865 32.3407 82.6895 31.093 81.8282 29.497C80.9795 27.8883 80.5552 26.0263 80.5552 23.911C80.5552 21.669 80.9732 19.7247 81.8092 18.078C82.6578 16.4313 83.8358 15.1583 85.3432 14.259C86.8505 13.3597 88.6048 12.91 90.6062 12.91C92.6962 12.91 94.4758 13.3977 95.9452 14.373C97.4145 15.3357 98.5102 16.71 99.2322 18.496C99.9668 20.282 100.258 22.4037 100.106 24.861H96.1352V23.417C96.1098 21.0357 95.6538 19.275 94.7672 18.135C93.8932 16.995 92.5568 16.425 90.7582 16.425C88.7695 16.425 87.2748 17.052 86.2742 18.306C85.2735 19.56 84.7732 21.3713 84.7732 23.74C84.7732 25.9947 85.2735 27.7427 86.2742 28.984C87.2748 30.2127 88.7188 30.827 90.6062 30.827C91.8475 30.827 92.9178 30.5483 93.8172 29.991C94.7292 29.421 95.4385 28.6103 95.9452 27.559L99.8402 28.794C99.0422 30.6307 97.8325 32.0557 96.2112 33.069C94.5898 34.0697 92.7848 34.57 90.7962 34.57ZM83.4812 24.861V21.764H98.1302V24.861H83.4812ZM116.111 34C114.819 34.2533 113.552 34.361 112.311 34.323C111.07 34.285 109.961 34.0443 108.986 33.601C108.011 33.1577 107.276 32.461 106.782 31.511C106.339 30.6623 106.098 29.801 106.06 28.927C106.035 28.0403 106.022 27.0397 106.022 25.925V7.78H110.012V25.735C110.012 26.5583 110.018 27.274 110.031 27.882C110.056 28.49 110.189 29.003 110.43 29.421C110.886 30.2063 111.608 30.656 112.596 30.77C113.597 30.8713 114.768 30.827 116.111 30.637V34ZM102.089 16.672V13.48H116.111V16.672H102.089ZM128.094 34.551C125.688 34.551 123.705 34.0317 122.147 32.993C120.602 31.9543 119.652 30.5103 119.297 28.661L122.147 28.186C122.451 29.3513 123.142 30.2823 124.218 30.979C125.308 31.663 126.65 32.005 128.246 32.005C129.804 32.005 131.033 31.682 131.932 31.036C132.832 30.3773 133.281 29.4843 133.281 28.357C133.281 27.7237 133.136 27.2107 132.844 26.818C132.566 26.4127 131.989 26.039 131.115 25.697C130.241 25.355 128.937 24.9497 127.201 24.481C125.339 23.9743 123.883 23.4677 122.831 22.961C121.78 22.4543 121.033 21.8717 120.589 21.213C120.146 20.5417 119.924 19.7247 119.924 18.762C119.924 17.5967 120.254 16.577 120.912 15.703C121.571 14.8163 122.483 14.1323 123.648 13.651C124.814 13.157 126.169 12.91 127.714 12.91C129.26 12.91 130.64 13.1633 131.856 13.67C133.085 14.164 134.073 14.8607 134.82 15.76C135.568 16.6593 136.011 17.7043 136.15 18.895L133.3 19.408C133.11 18.2047 132.509 17.2547 131.495 16.558C130.495 15.8487 129.222 15.4813 127.676 15.456C126.22 15.418 125.035 15.6967 124.123 16.292C123.211 16.8747 122.755 17.6537 122.755 18.629C122.755 19.1737 122.92 19.6423 123.249 20.035C123.579 20.415 124.174 20.776 125.035 21.118C125.909 21.46 127.151 21.8337 128.759 22.239C130.647 22.7203 132.129 23.227 133.205 23.759C134.282 24.291 135.048 24.918 135.504 25.64C135.96 26.362 136.188 27.255 136.188 28.319C136.188 30.257 135.466 31.7833 134.022 32.898C132.591 34 130.615 34.551 128.094 34.551ZM149.617 34.57C147.73 34.57 146.134 34.095 144.829 33.145C143.525 32.1823 142.537 30.884 141.865 29.25C141.194 27.6033 140.858 25.7603 140.858 23.721C140.858 21.6437 141.194 19.7943 141.865 18.173C142.549 16.539 143.55 15.2533 144.867 14.316C146.185 13.3787 147.806 12.91 149.731 12.91C151.606 12.91 153.215 13.385 154.557 14.335C155.9 15.285 156.926 16.577 157.635 18.211C158.357 19.845 158.718 21.6817 158.718 23.721C158.718 25.773 158.357 27.616 157.635 29.25C156.913 30.884 155.875 32.1823 154.519 33.145C153.164 34.095 151.53 34.57 149.617 34.57ZM140.383 43.12V13.48H142.891V28.927H143.195V43.12H140.383ZM149.332 31.967C150.764 31.967 151.954 31.606 152.904 30.884C153.854 30.162 154.564 29.1803 155.032 27.939C155.514 26.685 155.754 25.279 155.754 23.721C155.754 22.1757 155.52 20.7823 155.051 19.541C154.583 18.2997 153.867 17.318 152.904 16.596C151.954 15.874 150.745 15.513 149.275 15.513C147.844 15.513 146.653 15.8613 145.703 16.558C144.766 17.2547 144.063 18.2237 143.594 19.465C143.126 20.6937 142.891 22.1123 142.891 23.721C142.891 25.3043 143.126 26.723 143.594 27.977C144.063 29.2183 144.772 30.1937 145.722 30.903C146.672 31.6123 147.876 31.967 149.332 31.967ZM171.459 34.57C169.42 34.57 167.678 34.1077 166.234 33.183C164.79 32.2583 163.682 30.979 162.909 29.345C162.137 27.711 161.75 25.8363 161.75 23.721C161.75 21.5677 162.143 19.6803 162.928 18.059C163.714 16.4377 164.828 15.1773 166.272 14.278C167.729 13.366 169.458 12.91 171.459 12.91C173.511 12.91 175.259 13.3723 176.703 14.297C178.16 15.209 179.268 16.482 180.028 18.116C180.801 19.7373 181.187 21.6057 181.187 23.721C181.187 25.8743 180.801 27.768 180.028 29.402C179.256 31.0233 178.141 32.29 176.684 33.202C175.228 34.114 173.486 34.57 171.459 34.57ZM171.459 31.891C173.739 31.891 175.437 31.1373 176.551 29.63C177.666 28.11 178.223 26.1403 178.223 23.721C178.223 21.2383 177.66 19.2623 176.532 17.793C175.418 16.3237 173.727 15.589 171.459 15.589C169.927 15.589 168.66 15.9373 167.659 16.634C166.671 17.318 165.93 18.2743 165.436 19.503C164.955 20.719 164.714 22.125 164.714 23.721C164.714 26.191 165.284 28.1733 166.424 29.668C167.564 31.15 169.243 31.891 171.459 31.891ZM196.551 34C195.398 34.2407 194.258 34.3357 193.131 34.285C192.016 34.2343 191.015 33.9937 190.129 33.563C189.255 33.1323 188.59 32.461 188.134 31.549C187.766 30.789 187.564 30.0227 187.526 29.25C187.5 28.4647 187.488 27.5717 187.488 26.571V7.78H190.262V26.457C190.262 27.3183 190.268 28.0403 190.281 28.623C190.306 29.193 190.439 29.6997 190.68 30.143C191.136 30.9917 191.858 31.4983 192.846 31.663C193.846 31.8277 195.081 31.7897 196.551 31.549V34ZM183.099 15.874V13.48H196.551V15.874H183.099Z" fill="black"/>
</svg>
