<svg width="206" height="44" viewBox="0 0 206 44" fill="none" xmlns="http://www.w3.org/2000/svg">
<circle cx="20" cy="24" r="20" fill="#FFC281"/>
<path d="M18.5734 34.551C16.0781 34.551 14.0451 34 12.4744 32.898C10.9037 31.796 9.94107 30.2443 9.58641 28.243L13.6524 27.616C13.9057 28.68 14.4884 29.5223 15.4004 30.143C16.3251 30.751 17.4714 31.055 18.8394 31.055C20.0807 31.055 21.0497 30.8017 21.7464 30.295C22.4557 29.7883 22.8104 29.0917 22.8104 28.205C22.8104 27.6857 22.6837 27.2677 22.4304 26.951C22.1897 26.6217 21.6767 26.3113 20.8914 26.02C20.1061 25.7287 18.9091 25.3677 17.3004 24.937C15.5397 24.481 14.1401 23.9933 13.1014 23.474C12.0754 22.942 11.3407 22.3277 10.8974 21.631C10.4667 20.9217 10.2514 20.0667 10.2514 19.066C10.2514 17.8247 10.5807 16.7417 11.2394 15.817C11.8981 14.8923 12.8227 14.1767 14.0134 13.67C15.2167 13.1633 16.6227 12.91 18.2314 12.91C19.8021 12.91 21.2017 13.157 22.4304 13.651C23.6591 14.145 24.6534 14.848 25.4134 15.76C26.1734 16.6593 26.6294 17.717 26.7814 18.933L22.7154 19.674C22.5761 18.686 22.1137 17.907 21.3284 17.337C20.5431 16.767 19.5234 16.4567 18.2694 16.406C17.0661 16.3553 16.0907 16.558 15.3434 17.014C14.5961 17.4573 14.2224 18.0717 14.2224 18.857C14.2224 19.313 14.3617 19.6993 14.6404 20.016C14.9317 20.3327 15.4891 20.6367 16.3124 20.928C17.1357 21.2193 18.3517 21.5677 19.9604 21.973C21.6831 22.4163 23.0511 22.9103 24.0644 23.455C25.0777 23.987 25.7997 24.6267 26.2304 25.374C26.6737 26.1087 26.8954 27.0017 26.8954 28.053C26.8954 30.0797 26.1544 31.6693 24.6724 32.822C23.2031 33.9747 21.1701 34.551 18.5734 34.551ZM40.2005 34.57C38.1611 34.57 36.3688 34.1267 34.8235 33.24C33.2908 32.3407 32.0938 31.093 31.2325 29.497C30.3838 27.8883 29.9595 26.0263 29.9595 23.911C29.9595 21.669 30.3775 19.7247 31.2135 18.078C32.0621 16.4313 33.2401 15.1583 34.7475 14.259C36.2548 13.3597 38.0091 12.91 40.0105 12.91C42.1005 12.91 43.8801 13.3977 45.3495 14.373C46.8188 15.3357 47.9145 16.71 48.6365 18.496C49.3711 20.282 49.6625 22.4037 49.5105 24.861H45.5395V23.417C45.5141 21.0357 45.0581 19.275 44.1715 18.135C43.2975 16.995 41.9611 16.425 40.1625 16.425C38.1738 16.425 36.6791 17.052 35.6785 18.306C34.6778 19.56 34.1775 21.3713 34.1775 23.74C34.1775 25.9947 34.6778 27.7427 35.6785 28.984C36.6791 30.2127 38.1231 30.827 40.0105 30.827C41.2518 30.827 42.3221 30.5483 43.2215 29.991C44.1335 29.421 44.8428 28.6103 45.3495 27.559L49.2445 28.794C48.4465 30.6307 47.2368 32.0557 45.6155 33.069C43.9941 34.0697 42.1891 34.57 40.2005 34.57ZM32.8855 24.861V21.764H47.5345V24.861H32.8855ZM62.5513 34.57C60.4486 34.57 58.6626 34.1013 57.1933 33.164C55.7239 32.2267 54.5966 30.941 53.8113 29.307C53.0386 27.673 52.6459 25.8173 52.6333 23.74C52.6459 21.6247 53.0513 19.7563 53.8493 18.135C54.6473 16.501 55.7873 15.2217 57.2693 14.297C58.7513 13.3723 60.5309 12.91 62.6083 12.91C64.8503 12.91 66.7629 13.4673 68.3463 14.582C69.9423 15.6967 70.9936 17.223 71.5003 19.161L67.5483 20.301C67.1556 19.1483 66.5096 18.2553 65.6103 17.622C64.7236 16.976 63.7039 16.653 62.5513 16.653C61.2466 16.653 60.1763 16.9633 59.3403 17.584C58.5043 18.192 57.8836 19.028 57.4783 20.092C57.0729 21.156 56.8639 22.372 56.8513 23.74C56.8639 25.8553 57.3453 27.5653 58.2953 28.87C59.2579 30.1747 60.6766 30.827 62.5513 30.827C63.8306 30.827 64.8629 30.5357 65.6483 29.953C66.4463 29.3577 67.0543 28.509 67.4723 27.407L71.5003 28.357C70.8289 30.3583 69.7206 31.8973 68.1753 32.974C66.6299 34.038 64.7553 34.57 62.5513 34.57ZM75.3709 34V13.48H78.9049V18.458L78.4109 17.812C78.6643 17.1533 78.9936 16.5517 79.3989 16.007C79.8043 15.4497 80.2729 14.9937 80.8049 14.639C81.3243 14.259 81.9006 13.9677 82.5339 13.765C83.1799 13.5497 83.8386 13.423 84.5099 13.385C85.1813 13.3343 85.8273 13.366 86.4479 13.48V17.204C85.7766 17.0267 85.0293 16.976 84.2059 17.052C83.3953 17.128 82.6479 17.3877 81.9639 17.831C81.3179 18.249 80.8049 18.7557 80.4249 19.351C80.0576 19.9463 79.7916 20.6113 79.6269 21.346C79.4623 22.068 79.3799 22.8343 79.3799 23.645V34H75.3709ZM98.7962 34.57C96.7568 34.57 94.9645 34.1267 93.4192 33.24C91.8865 32.3407 90.6895 31.093 89.8282 29.497C88.9795 27.8883 88.5552 26.0263 88.5552 23.911C88.5552 21.669 88.9732 19.7247 89.8092 18.078C90.6578 16.4313 91.8358 15.1583 93.3432 14.259C94.8505 13.3597 96.6048 12.91 98.6062 12.91C100.696 12.91 102.476 13.3977 103.945 14.373C105.414 15.3357 106.51 16.71 107.232 18.496C107.967 20.282 108.258 22.4037 108.106 24.861H104.135V23.417C104.11 21.0357 103.654 19.275 102.767 18.135C101.893 16.995 100.557 16.425 98.7582 16.425C96.7695 16.425 95.2748 17.052 94.2742 18.306C93.2735 19.56 92.7732 21.3713 92.7732 23.74C92.7732 25.9947 93.2735 27.7427 94.2742 28.984C95.2748 30.2127 96.7188 30.827 98.6062 30.827C99.8475 30.827 100.918 30.5483 101.817 29.991C102.729 29.421 103.438 28.6103 103.945 27.559L107.84 28.794C107.042 30.6307 105.832 32.0557 104.211 33.069C102.59 34.0697 100.785 34.57 98.7962 34.57ZM91.4812 24.861V21.764H106.13V24.861H91.4812ZM124.111 34C122.819 34.2533 121.552 34.361 120.311 34.323C119.07 34.285 117.961 34.0443 116.986 33.601C116.011 33.1577 115.276 32.461 114.782 31.511C114.339 30.6623 114.098 29.801 114.06 28.927C114.035 28.0403 114.022 27.0397 114.022 25.925V7.78H118.012V25.735C118.012 26.5583 118.018 27.274 118.031 27.882C118.056 28.49 118.189 29.003 118.43 29.421C118.886 30.2063 119.608 30.656 120.596 30.77C121.597 30.8713 122.768 30.827 124.111 30.637V34ZM110.089 16.672V13.48H124.111V16.672H110.089ZM136.094 34.551C133.688 34.551 131.705 34.0317 130.147 32.993C128.602 31.9543 127.652 30.5103 127.297 28.661L130.147 28.186C130.451 29.3513 131.142 30.2823 132.218 30.979C133.308 31.663 134.65 32.005 136.246 32.005C137.804 32.005 139.033 31.682 139.932 31.036C140.832 30.3773 141.281 29.4843 141.281 28.357C141.281 27.7237 141.136 27.2107 140.844 26.818C140.566 26.4127 139.989 26.039 139.115 25.697C138.241 25.355 136.937 24.9497 135.201 24.481C133.339 23.9743 131.883 23.4677 130.831 22.961C129.78 22.4543 129.033 21.8717 128.589 21.213C128.146 20.5417 127.924 19.7247 127.924 18.762C127.924 17.5967 128.254 16.577 128.912 15.703C129.571 14.8163 130.483 14.1323 131.648 13.651C132.814 13.157 134.169 12.91 135.714 12.91C137.26 12.91 138.64 13.1633 139.856 13.67C141.085 14.164 142.073 14.8607 142.82 15.76C143.568 16.6593 144.011 17.7043 144.15 18.895L141.3 19.408C141.11 18.2047 140.509 17.2547 139.495 16.558C138.495 15.8487 137.222 15.4813 135.676 15.456C134.22 15.418 133.035 15.6967 132.123 16.292C131.211 16.8747 130.755 17.6537 130.755 18.629C130.755 19.1737 130.92 19.6423 131.249 20.035C131.579 20.415 132.174 20.776 133.035 21.118C133.909 21.46 135.151 21.8337 136.759 22.239C138.647 22.7203 140.129 23.227 141.205 23.759C142.282 24.291 143.048 24.918 143.504 25.64C143.96 26.362 144.188 27.255 144.188 28.319C144.188 30.257 143.466 31.7833 142.022 32.898C140.591 34 138.615 34.551 136.094 34.551ZM157.617 34.57C155.73 34.57 154.134 34.095 152.829 33.145C151.525 32.1823 150.537 30.884 149.865 29.25C149.194 27.6033 148.858 25.7603 148.858 23.721C148.858 21.6437 149.194 19.7943 149.865 18.173C150.549 16.539 151.55 15.2533 152.867 14.316C154.185 13.3787 155.806 12.91 157.731 12.91C159.606 12.91 161.215 13.385 162.557 14.335C163.9 15.285 164.926 16.577 165.635 18.211C166.357 19.845 166.718 21.6817 166.718 23.721C166.718 25.773 166.357 27.616 165.635 29.25C164.913 30.884 163.875 32.1823 162.519 33.145C161.164 34.095 159.53 34.57 157.617 34.57ZM148.383 43.12V13.48H150.891V28.927H151.195V43.12H148.383ZM157.332 31.967C158.764 31.967 159.954 31.606 160.904 30.884C161.854 30.162 162.564 29.1803 163.032 27.939C163.514 26.685 163.754 25.279 163.754 23.721C163.754 22.1757 163.52 20.7823 163.051 19.541C162.583 18.2997 161.867 17.318 160.904 16.596C159.954 15.874 158.745 15.513 157.275 15.513C155.844 15.513 154.653 15.8613 153.703 16.558C152.766 17.2547 152.063 18.2237 151.594 19.465C151.126 20.6937 150.891 22.1123 150.891 23.721C150.891 25.3043 151.126 26.723 151.594 27.977C152.063 29.2183 152.772 30.1937 153.722 30.903C154.672 31.6123 155.876 31.967 157.332 31.967ZM179.459 34.57C177.42 34.57 175.678 34.1077 174.234 33.183C172.79 32.2583 171.682 30.979 170.909 29.345C170.137 27.711 169.75 25.8363 169.75 23.721C169.75 21.5677 170.143 19.6803 170.928 18.059C171.714 16.4377 172.828 15.1773 174.272 14.278C175.729 13.366 177.458 12.91 179.459 12.91C181.511 12.91 183.259 13.3723 184.703 14.297C186.16 15.209 187.268 16.482 188.028 18.116C188.801 19.7373 189.187 21.6057 189.187 23.721C189.187 25.8743 188.801 27.768 188.028 29.402C187.256 31.0233 186.141 32.29 184.684 33.202C183.228 34.114 181.486 34.57 179.459 34.57ZM179.459 31.891C181.739 31.891 183.437 31.1373 184.551 29.63C185.666 28.11 186.223 26.1403 186.223 23.721C186.223 21.2383 185.66 19.2623 184.532 17.793C183.418 16.3237 181.727 15.589 179.459 15.589C177.927 15.589 176.66 15.9373 175.659 16.634C174.671 17.318 173.93 18.2743 173.436 19.503C172.955 20.719 172.714 22.125 172.714 23.721C172.714 26.191 173.284 28.1733 174.424 29.668C175.564 31.15 177.243 31.891 179.459 31.891ZM204.551 34C203.398 34.2407 202.258 34.3357 201.131 34.285C200.016 34.2343 199.015 33.9937 198.129 33.563C197.255 33.1323 196.59 32.461 196.134 31.549C195.766 30.789 195.564 30.0227 195.526 29.25C195.5 28.4647 195.488 27.5717 195.488 26.571V7.78H198.262V26.457C198.262 27.3183 198.268 28.0403 198.281 28.623C198.306 29.193 198.439 29.6997 198.68 30.143C199.136 30.9917 199.858 31.4983 200.846 31.663C201.846 31.8277 203.081 31.7897 204.551 31.549V34ZM191.099 15.874V13.48H204.551V15.874H191.099Z" fill="black"/>
</svg>
