<svg width="237" height="51" viewBox="0 0 237 51" fill="none" xmlns="http://www.w3.org/2000/svg">
<circle cx="24.5" cy="26.5" r="24.5" fill="#FFC281"/>
<path d="M24.9383 38.6235C22.1147 38.6235 19.8142 38 18.0368 36.753C16.2595 35.506 15.1702 33.7502 14.7688 31.4855L19.3698 30.776C19.6565 31.98 20.3158 32.9332 21.3478 33.6355C22.3942 34.3235 23.6913 34.6675 25.2393 34.6675C26.644 34.6675 27.7405 34.3808 28.5288 33.8075C29.3315 33.2342 29.7328 32.4458 29.7328 31.4425C29.7328 30.8548 29.5895 30.3818 29.3028 30.0235C29.0305 29.6508 28.45 29.2997 27.5613 28.97C26.6727 28.6403 25.3182 28.2318 23.4978 27.7445C21.5055 27.2285 19.9217 26.6767 18.7463 26.089C17.5853 25.487 16.754 24.7918 16.2523 24.0035C15.765 23.2008 15.5213 22.2333 15.5213 21.101C15.5213 19.6963 15.894 18.4708 16.6393 17.4245C17.3847 16.3782 18.431 15.5683 19.7783 14.995C21.14 14.4217 22.731 14.135 24.5513 14.135C26.3287 14.135 27.9125 14.4145 29.3028 14.9735C30.6932 15.5325 31.8183 16.328 32.6783 17.36C33.5383 18.3777 34.0543 19.5745 34.2263 20.9505L29.6253 21.789C29.4677 20.671 28.9445 19.7895 28.0558 19.1445C27.1672 18.4995 26.0133 18.1483 24.5943 18.091C23.2327 18.0337 22.129 18.263 21.2833 18.779C20.4377 19.2807 20.0148 19.9758 20.0148 20.8645C20.0148 21.3805 20.1725 21.8177 20.4878 22.176C20.8175 22.5343 21.4482 22.8783 22.3798 23.208C23.3115 23.5377 24.6875 23.9318 26.5078 24.3905C28.4572 24.8922 30.0052 25.4512 31.1518 26.0675C32.2985 26.6695 33.1155 27.3933 33.6028 28.239C34.1045 29.0703 34.3553 30.0808 34.3553 31.2705C34.3553 33.5638 33.5168 35.3627 31.8398 36.667C30.1772 37.9713 27.8767 38.6235 24.9383 38.6235ZM49.411 38.645C47.1034 38.645 45.0752 38.1433 43.3265 37.14C41.5922 36.1223 40.2377 34.7105 39.263 32.9045C38.3027 31.0842 37.8225 28.9772 37.8225 26.5835C37.8225 24.0465 38.2955 21.8463 39.2415 19.983C40.2019 18.1197 41.5349 16.6792 43.2405 15.6615C44.9462 14.6438 46.9314 14.135 49.196 14.135C51.561 14.135 53.5749 14.6868 55.2375 15.7905C56.9002 16.8798 58.14 18.435 58.957 20.456C59.7884 22.477 60.118 24.8778 59.946 27.6585H55.4525V26.0245C55.4239 23.3298 54.9079 21.3375 53.9045 20.0475C52.9155 18.7575 51.4034 18.1125 49.368 18.1125C47.1177 18.1125 45.4264 18.822 44.294 20.241C43.1617 21.66 42.5955 23.7097 42.5955 26.39C42.5955 28.9413 43.1617 30.9193 44.294 32.324C45.4264 33.7143 47.0604 34.4095 49.196 34.4095C50.6007 34.4095 51.8119 34.0942 52.8295 33.4635C53.8615 32.8185 54.6642 31.9012 55.2375 30.7115L59.645 32.109C58.742 34.1873 57.3732 35.7998 55.5385 36.9465C53.7039 38.0788 51.6614 38.645 49.411 38.645ZM41.1335 27.6585V24.154H57.71V27.6585H41.1335ZM74.7028 38.645C72.3234 38.645 70.3024 38.1147 68.6398 37.054C66.9771 35.9933 65.7014 34.5385 64.8128 32.6895C63.9384 30.8405 63.4941 28.7407 63.4798 26.39C63.4941 23.9963 63.9528 21.8822 64.8558 20.0475C65.7588 18.1985 67.0488 16.7508 68.7258 15.7045C70.4028 14.6582 72.4166 14.135 74.7673 14.135C77.3043 14.135 79.4686 14.7657 81.2603 16.027C83.0663 17.2883 84.2559 19.0155 84.8293 21.2085L80.3573 22.4985C79.9129 21.1942 79.1819 20.1837 78.1643 19.467C77.1609 18.736 76.0071 18.3705 74.7028 18.3705C73.2264 18.3705 72.0153 18.7217 71.0693 19.424C70.1233 20.112 69.4209 21.058 68.9623 22.262C68.5036 23.466 68.2671 24.842 68.2528 26.39C68.2671 28.7837 68.8118 30.7187 69.8868 32.195C70.9761 33.6713 72.5814 34.4095 74.7028 34.4095C76.1504 34.4095 77.3186 34.0798 78.2073 33.4205C79.1103 32.7468 79.7983 31.7865 80.2713 30.5395L84.8293 31.6145C84.0696 33.8792 82.8154 35.6207 81.0668 36.839C79.3181 38.043 77.1968 38.645 74.7028 38.645ZM89.2092 38V14.78H93.2082V20.413L92.6492 19.682C92.9359 18.9367 93.3086 18.2558 93.7672 17.6395C94.2259 17.0088 94.7562 16.4928 95.3582 16.0915C95.9459 15.6615 96.5981 15.3318 97.3147 15.1025C98.0457 14.8588 98.7911 14.7155 99.5507 14.6725C100.31 14.6152 101.041 14.651 101.744 14.78V18.994C100.984 18.7933 100.138 18.736 99.2067 18.822C98.2894 18.908 97.4437 19.2018 96.6697 19.7035C95.9387 20.1765 95.3582 20.7498 94.9282 21.4235C94.5126 22.0972 94.2116 22.8497 94.0252 23.681C93.8389 24.498 93.7457 25.3652 93.7457 26.2825V38H89.2092ZM115.717 38.645C113.409 38.645 111.381 38.1433 109.632 37.14C107.898 36.1223 106.543 34.7105 105.569 32.9045C104.608 31.0842 104.128 28.9772 104.128 26.5835C104.128 24.0465 104.601 21.8463 105.547 19.983C106.508 18.1197 107.841 16.6792 109.546 15.6615C111.252 14.6438 113.237 14.135 115.502 14.135C117.867 14.135 119.881 14.6868 121.543 15.7905C123.206 16.8798 124.446 18.435 125.263 20.456C126.094 22.477 126.424 24.8778 126.252 27.6585H121.758V26.0245C121.73 23.3298 121.214 21.3375 120.21 20.0475C119.221 18.7575 117.709 18.1125 115.674 18.1125C113.423 18.1125 111.732 18.822 110.6 20.241C109.467 21.66 108.901 23.7097 108.901 26.39C108.901 28.9413 109.467 30.9193 110.6 32.324C111.732 33.7143 113.366 34.4095 115.502 34.4095C116.906 34.4095 118.118 34.0942 119.135 33.4635C120.167 32.8185 120.97 31.9012 121.543 30.7115L125.951 32.109C125.048 34.1873 123.679 35.7998 121.844 36.9465C120.01 38.0788 117.967 38.645 115.717 38.645ZM107.439 27.6585V24.154H124.016V27.6585H107.439ZM144.362 38C142.9 38.2867 141.467 38.4085 140.062 38.3655C138.658 38.3225 137.404 38.0502 136.3 37.5485C135.196 37.0468 134.365 36.2585 133.806 35.1835C133.304 34.2232 133.032 33.2485 132.989 32.2595C132.96 31.2562 132.946 30.1238 132.946 28.8625V8.33H137.461V28.6475C137.461 29.5792 137.468 30.389 137.482 31.077C137.511 31.765 137.662 32.3455 137.934 32.8185C138.45 33.7072 139.267 34.216 140.385 34.345C141.517 34.4597 142.843 34.4095 144.362 34.1945V38ZM128.495 18.392V14.78H144.362V18.392H128.495ZM157.923 38.6235C155.199 38.6235 152.956 38.0358 151.193 36.8605C149.444 35.6852 148.369 34.0512 147.968 31.9585L151.193 31.421C151.537 32.7397 152.318 33.7932 153.537 34.5815C154.769 35.3555 156.289 35.7425 158.095 35.7425C159.858 35.7425 161.248 35.377 162.266 34.646C163.283 33.9007 163.792 32.8902 163.792 31.6145C163.792 30.8978 163.627 30.3173 163.298 29.873C162.982 29.4143 162.33 28.9915 161.341 28.6045C160.352 28.2175 158.876 27.7588 156.912 27.2285C154.805 26.6552 153.157 26.0818 151.967 25.5085C150.777 24.9352 149.932 24.2758 149.43 23.5305C148.928 22.7708 148.678 21.8463 148.678 20.757C148.678 19.4383 149.05 18.2845 149.796 17.2955C150.541 16.2922 151.573 15.5182 152.892 14.9735C154.21 14.4145 155.744 14.135 157.493 14.135C159.241 14.135 160.804 14.4217 162.18 14.995C163.57 15.554 164.688 16.3423 165.534 17.36C166.379 18.3777 166.881 19.5602 167.039 20.9075L163.814 21.488C163.599 20.1263 162.918 19.0513 161.771 18.263C160.639 17.4603 159.198 17.0447 157.45 17.016C155.801 16.973 154.461 17.2883 153.429 17.962C152.397 18.6213 151.881 19.5028 151.881 20.6065C151.881 21.2228 152.067 21.7532 152.44 22.1975C152.813 22.6275 153.486 23.036 154.461 23.423C155.45 23.81 156.855 24.2328 158.675 24.6915C160.811 25.2362 162.488 25.8095 163.706 26.4115C164.924 27.0135 165.792 27.723 166.308 28.54C166.824 29.357 167.082 30.3675 167.082 31.5715C167.082 33.7645 166.265 35.4917 164.631 36.753C163.011 38 160.775 38.6235 157.923 38.6235ZM182.277 38.645C180.142 38.645 178.336 38.1075 176.859 37.0325C175.383 35.9432 174.265 34.474 173.505 32.625C172.746 30.7617 172.366 28.6762 172.366 26.3685C172.366 24.0178 172.746 21.9252 173.505 20.0905C174.279 18.2415 175.412 16.7867 176.902 15.726C178.393 14.6653 180.228 14.135 182.406 14.135C184.528 14.135 186.348 14.6725 187.867 15.7475C189.387 16.8225 190.548 18.2845 191.35 20.1335C192.167 21.9825 192.576 24.0608 192.576 26.3685C192.576 28.6905 192.167 30.776 191.35 32.625C190.533 34.474 189.358 35.9432 187.824 37.0325C186.291 38.1075 184.442 38.645 182.277 38.645ZM171.828 48.32V14.78H174.666V32.2595H175.01V48.32H171.828ZM181.955 35.6995C183.575 35.6995 184.922 35.291 185.997 34.474C187.072 33.657 187.875 32.5462 188.405 31.1415C188.95 29.7225 189.222 28.1315 189.222 26.3685C189.222 24.6198 188.957 23.0432 188.426 21.6385C187.896 20.2338 187.086 19.123 185.997 18.306C184.922 17.489 183.553 17.0805 181.89 17.0805C180.271 17.0805 178.923 17.4747 177.848 18.263C176.788 19.0513 175.992 20.1478 175.462 21.5525C174.932 22.9428 174.666 24.5482 174.666 26.3685C174.666 28.1602 174.932 29.7655 175.462 31.1845C175.992 32.5892 176.795 33.6928 177.87 34.4955C178.945 35.2982 180.307 35.6995 181.955 35.6995ZM206.994 38.645C204.686 38.645 202.715 38.1218 201.081 37.0755C199.447 36.0292 198.193 34.5815 197.319 32.7325C196.444 30.8835 196.007 28.7622 196.007 26.3685C196.007 23.9318 196.451 21.7962 197.34 19.9615C198.229 18.1268 199.49 16.7007 201.124 15.683C202.772 14.651 204.729 14.135 206.994 14.135C209.316 14.135 211.294 14.6582 212.928 15.7045C214.576 16.7365 215.83 18.177 216.69 20.026C217.564 21.8607 218.002 23.9748 218.002 26.3685C218.002 28.8052 217.564 30.948 216.69 32.797C215.816 34.6317 214.554 36.065 212.906 37.097C211.258 38.129 209.287 38.645 206.994 38.645ZM206.994 35.6135C209.574 35.6135 211.494 34.7607 212.756 33.055C214.017 31.335 214.648 29.1062 214.648 26.3685C214.648 23.5592 214.01 21.3232 212.734 19.6605C211.473 17.9978 209.559 17.1665 206.994 17.1665C205.259 17.1665 203.826 17.5607 202.694 18.349C201.576 19.123 200.737 20.2052 200.178 21.5955C199.633 22.9715 199.361 24.5625 199.361 26.3685C199.361 29.1635 200.006 31.4067 201.296 33.098C202.586 34.775 204.485 35.6135 206.994 35.6135ZM235.386 38C234.082 38.2723 232.792 38.3798 231.516 38.3225C230.255 38.2652 229.123 37.9928 228.119 37.5055C227.13 37.0182 226.378 36.2585 225.862 35.2265C225.446 34.3665 225.217 33.4993 225.174 32.625C225.145 31.7363 225.131 30.7258 225.131 29.5935V8.33H228.27V29.4645C228.27 30.4392 228.277 31.2562 228.291 31.9155C228.32 32.5605 228.471 33.1338 228.743 33.6355C229.259 34.5958 230.076 35.1692 231.194 35.3555C232.326 35.5418 233.724 35.4988 235.386 35.2265V38ZM220.164 17.489V14.78H235.386V17.489H220.164Z" fill="black"/>
</svg>
