<svg width="222" height="41" viewBox="0 0 222 41" fill="none" xmlns="http://www.w3.org/2000/svg">
<path d="M10.9383 30.6235C8.11466 30.6235 5.81416 30 4.03683 28.753C2.25949 27.506 1.17016 25.7502 0.768828 23.4855L5.36983 22.776C5.65649 23.98 6.31583 24.9332 7.34783 25.6355C8.39416 26.3235 9.69133 26.6675 11.2393 26.6675C12.644 26.6675 13.7405 26.3808 14.5288 25.8075C15.3315 25.2342 15.7328 24.4458 15.7328 23.4425C15.7328 22.8548 15.5895 22.3818 15.3028 22.0235C15.0305 21.6508 14.45 21.2997 13.5613 20.97C12.6727 20.6403 11.3182 20.2318 9.49783 19.7445C7.5055 19.2285 5.92166 18.6767 4.74633 18.089C3.58533 17.487 2.754 16.7918 2.25233 16.0035C1.76499 15.2008 1.52133 14.2333 1.52133 13.101C1.52133 11.6963 1.89399 10.4708 2.63933 9.4245C3.38466 8.37817 4.431 7.56833 5.77833 6.995C7.14 6.42167 8.731 6.135 10.5513 6.135C12.3287 6.135 13.9125 6.4145 15.3028 6.9735C16.6932 7.5325 17.8183 8.328 18.6783 9.36C19.5383 10.3777 20.0543 11.5745 20.2263 12.9505L15.6253 13.789C15.4677 12.671 14.9445 11.7895 14.0558 11.1445C13.1672 10.4995 12.0133 10.1483 10.5943 10.091C9.23266 10.0337 8.129 10.263 7.28333 10.779C6.43766 11.2807 6.01483 11.9758 6.01483 12.8645C6.01483 13.3805 6.17249 13.8177 6.48783 14.176C6.8175 14.5343 7.44816 14.8783 8.37983 15.208C9.3115 15.5377 10.6875 15.9318 12.5078 16.3905C14.4572 16.8922 16.0052 17.4512 17.1518 18.0675C18.2985 18.6695 19.1155 19.3933 19.6028 20.239C20.1045 21.0703 20.3553 22.0808 20.3553 23.2705C20.3553 25.5638 19.5168 27.3627 17.8398 28.667C16.1772 29.9713 13.8767 30.6235 10.9383 30.6235ZM35.411 30.645C33.1034 30.645 31.0752 30.1433 29.3265 29.14C27.5922 28.1223 26.2377 26.7105 25.263 24.9045C24.3027 23.0842 23.8225 20.9772 23.8225 18.5835C23.8225 16.0465 24.2955 13.8463 25.2415 11.983C26.2019 10.1197 27.5349 8.67917 29.2405 7.6615C30.9462 6.64383 32.9314 6.135 35.196 6.135C37.561 6.135 39.5749 6.68683 41.2375 7.7905C42.9002 8.87983 44.14 10.435 44.957 12.456C45.7884 14.477 46.118 16.8778 45.946 19.6585H41.4525V18.0245C41.4239 15.3298 40.9079 13.3375 39.9045 12.0475C38.9155 10.7575 37.4034 10.1125 35.368 10.1125C33.1177 10.1125 31.4264 10.822 30.294 12.241C29.1617 13.66 28.5955 15.7097 28.5955 18.39C28.5955 20.9413 29.1617 22.9193 30.294 24.324C31.4264 25.7143 33.0604 26.4095 35.196 26.4095C36.6007 26.4095 37.8119 26.0942 38.8295 25.4635C39.8615 24.8185 40.6642 23.9012 41.2375 22.7115L45.645 24.109C44.742 26.1873 43.3732 27.7998 41.5385 28.9465C39.7039 30.0788 37.6614 30.645 35.411 30.645ZM27.1335 19.6585V16.154H43.71V19.6585H27.1335ZM60.7028 30.645C58.3234 30.645 56.3024 30.1147 54.6398 29.054C52.9771 27.9933 51.7014 26.5385 50.8128 24.6895C49.9384 22.8405 49.4941 20.7407 49.4798 18.39C49.4941 15.9963 49.9528 13.8822 50.8558 12.0475C51.7588 10.1985 53.0488 8.75083 54.7258 7.7045C56.4028 6.65817 58.4166 6.135 60.7673 6.135C63.3043 6.135 65.4686 6.76567 67.2603 8.027C69.0663 9.28833 70.2559 11.0155 70.8293 13.2085L66.3573 14.4985C65.9129 13.1942 65.1819 12.1837 64.1643 11.467C63.1609 10.736 62.0071 10.3705 60.7028 10.3705C59.2264 10.3705 58.0153 10.7217 57.0693 11.424C56.1233 12.112 55.4209 13.058 54.9623 14.262C54.5036 15.466 54.2671 16.842 54.2528 18.39C54.2671 20.7837 54.8118 22.7187 55.8868 24.195C56.9761 25.6713 58.5814 26.4095 60.7028 26.4095C62.1504 26.4095 63.3186 26.0798 64.2073 25.4205C65.1103 24.7468 65.7983 23.7865 66.2713 22.5395L70.8293 23.6145C70.0696 25.8792 68.8154 27.6207 67.0668 28.839C65.3181 30.043 63.1968 30.645 60.7028 30.645ZM75.2092 30V6.78H79.2082V12.413L78.6492 11.682C78.9359 10.9367 79.3086 10.2558 79.7672 9.6395C80.2259 9.00883 80.7562 8.49283 81.3582 8.0915C81.9459 7.6615 82.5981 7.33183 83.3147 7.1025C84.0457 6.85883 84.7911 6.7155 85.5507 6.6725C86.3104 6.61516 87.0414 6.651 87.7437 6.78V10.994C86.9841 10.7933 86.1384 10.736 85.2067 10.822C84.2894 10.908 83.4437 11.2018 82.6697 11.7035C81.9387 12.1765 81.3582 12.7498 80.9282 13.4235C80.5126 14.0972 80.2116 14.8497 80.0252 15.681C79.8389 16.498 79.7457 17.3652 79.7457 18.2825V30H75.2092ZM101.717 30.645C99.409 30.645 97.3809 30.1433 95.6322 29.14C93.8979 28.1223 92.5434 26.7105 91.5687 24.9045C90.6084 23.0842 90.1282 20.9772 90.1282 18.5835C90.1282 16.0465 90.6012 13.8463 91.5472 11.983C92.5075 10.1197 93.8405 8.67917 95.5462 7.6615C97.2519 6.64383 99.237 6.135 101.502 6.135C103.867 6.135 105.881 6.68683 107.543 7.7905C109.206 8.87983 110.446 10.435 111.263 12.456C112.094 14.477 112.424 16.8778 112.252 19.6585H107.758V18.0245C107.73 15.3298 107.214 13.3375 106.21 12.0475C105.221 10.7575 103.709 10.1125 101.674 10.1125C99.4234 10.1125 97.732 10.822 96.5997 12.241C95.4674 13.66 94.9012 15.7097 94.9012 18.39C94.9012 20.9413 95.4674 22.9193 96.5997 24.324C97.732 25.7143 99.366 26.4095 101.502 26.4095C102.906 26.4095 104.118 26.0942 105.135 25.4635C106.167 24.8185 106.97 23.9012 107.543 22.7115L111.951 24.109C111.048 26.1873 109.679 27.7998 107.844 28.9465C106.01 30.0788 103.967 30.645 101.717 30.645ZM93.4392 19.6585V16.154H110.016V19.6585H93.4392ZM130.362 30C128.9 30.2867 127.467 30.4085 126.062 30.3655C124.658 30.3225 123.404 30.0502 122.3 29.5485C121.196 29.0468 120.365 28.2585 119.806 27.1835C119.304 26.2232 119.032 25.2485 118.989 24.2595C118.96 23.2562 118.946 22.1238 118.946 20.8625V0.329998H123.461V20.6475C123.461 21.5792 123.468 22.389 123.482 23.077C123.511 23.765 123.662 24.3455 123.934 24.8185C124.45 25.7072 125.267 26.216 126.385 26.345C127.517 26.4597 128.843 26.4095 130.362 26.1945V30ZM114.495 10.392V6.78H130.362V10.392H114.495ZM143.923 30.6235C141.199 30.6235 138.956 30.0358 137.193 28.8605C135.444 27.6852 134.369 26.0512 133.968 23.9585L137.193 23.421C137.537 24.7397 138.318 25.7932 139.537 26.5815C140.769 27.3555 142.289 27.7425 144.095 27.7425C145.858 27.7425 147.248 27.377 148.266 26.646C149.283 25.9007 149.792 24.8902 149.792 23.6145C149.792 22.8978 149.627 22.3173 149.298 21.873C148.982 21.4143 148.33 20.9915 147.341 20.6045C146.352 20.2175 144.876 19.7588 142.912 19.2285C140.805 18.6552 139.157 18.0818 137.967 17.5085C136.777 16.9352 135.932 16.2758 135.43 15.5305C134.928 14.7708 134.678 13.8463 134.678 12.757C134.678 11.4383 135.05 10.2845 135.796 9.2955C136.541 8.29217 137.573 7.51817 138.892 6.9735C140.21 6.4145 141.744 6.135 143.493 6.135C145.241 6.135 146.804 6.42167 148.18 6.995C149.57 7.554 150.688 8.34233 151.534 9.36C152.379 10.3777 152.881 11.5602 153.039 12.9075L149.814 13.488C149.599 12.1263 148.918 11.0513 147.771 10.263C146.639 9.46033 145.198 9.04467 143.45 9.016C141.801 8.973 140.461 9.28833 139.429 9.962C138.397 10.6213 137.881 11.5028 137.881 12.6065C137.881 13.2228 138.067 13.7532 138.44 14.1975C138.813 14.6275 139.486 15.036 140.461 15.423C141.45 15.81 142.855 16.2328 144.675 16.6915C146.811 17.2362 148.488 17.8095 149.706 18.4115C150.924 19.0135 151.792 19.723 152.308 20.54C152.824 21.357 153.082 22.3675 153.082 23.5715C153.082 25.7645 152.265 27.4917 150.631 28.753C149.011 30 146.775 30.6235 143.923 30.6235ZM168.277 30.645C166.142 30.645 164.336 30.1075 162.859 29.0325C161.383 27.9432 160.265 26.474 159.505 24.625C158.746 22.7617 158.366 20.6762 158.366 18.3685C158.366 16.0178 158.746 13.9252 159.505 12.0905C160.279 10.2415 161.412 8.78667 162.902 7.726C164.393 6.66533 166.228 6.135 168.406 6.135C170.528 6.135 172.348 6.6725 173.867 7.7475C175.387 8.8225 176.548 10.2845 177.35 12.1335C178.167 13.9825 178.576 16.0608 178.576 18.3685C178.576 20.6905 178.167 22.776 177.35 24.625C176.533 26.474 175.358 27.9432 173.824 29.0325C172.291 30.1075 170.442 30.645 168.277 30.645ZM157.828 40.32V6.78H160.666V24.2595H161.01V40.32H157.828ZM167.955 27.6995C169.575 27.6995 170.922 27.291 171.997 26.474C173.072 25.657 173.875 24.5462 174.405 23.1415C174.95 21.7225 175.222 20.1315 175.222 18.3685C175.222 16.6198 174.957 15.0432 174.426 13.6385C173.896 12.2338 173.086 11.123 171.997 10.306C170.922 9.489 169.553 9.0805 167.89 9.0805C166.271 9.0805 164.923 9.47467 163.848 10.263C162.788 11.0513 161.992 12.1478 161.462 13.5525C160.932 14.9428 160.666 16.5482 160.666 18.3685C160.666 20.1602 160.932 21.7655 161.462 23.1845C161.992 24.5892 162.795 25.6928 163.87 26.4955C164.945 27.2982 166.307 27.6995 167.955 27.6995ZM192.994 30.645C190.686 30.645 188.715 30.1218 187.081 29.0755C185.447 28.0292 184.193 26.5815 183.319 24.7325C182.444 22.8835 182.007 20.7622 182.007 18.3685C182.007 15.9318 182.451 13.7962 183.34 11.9615C184.229 10.1268 185.49 8.70066 187.124 7.683C188.772 6.651 190.729 6.135 192.994 6.135C195.316 6.135 197.294 6.65817 198.928 7.7045C200.576 8.7365 201.83 10.177 202.69 12.026C203.564 13.8607 204.002 15.9748 204.002 18.3685C204.002 20.8052 203.564 22.948 202.69 24.797C201.816 26.6317 200.554 28.065 198.906 29.097C197.258 30.129 195.287 30.645 192.994 30.645ZM192.994 27.6135C195.574 27.6135 197.494 26.7607 198.756 25.055C200.017 23.335 200.648 21.1062 200.648 18.3685C200.648 15.5592 200.01 13.3232 198.734 11.6605C197.473 9.99783 195.559 9.1665 192.994 9.1665C191.259 9.1665 189.826 9.56067 188.694 10.349C187.576 11.123 186.737 12.2052 186.178 13.5955C185.633 14.9715 185.361 16.5625 185.361 18.3685C185.361 21.1635 186.006 23.4067 187.296 25.098C188.586 26.775 190.485 27.6135 192.994 27.6135ZM221.386 30C220.082 30.2723 218.792 30.3798 217.516 30.3225C216.255 30.2652 215.123 29.9928 214.119 29.5055C213.13 29.0182 212.378 28.2585 211.862 27.2265C211.446 26.3665 211.217 25.4993 211.174 24.625C211.145 23.7363 211.131 22.7258 211.131 21.5935V0.329998H214.27V21.4645C214.27 22.4392 214.277 23.2562 214.291 23.9155C214.32 24.5605 214.471 25.1338 214.743 25.6355C215.259 26.5958 216.076 27.1692 217.194 27.3555C218.326 27.5418 219.724 27.4988 221.386 27.2265V30ZM206.164 9.489V6.78H221.386V9.489H206.164Z" fill="black"/>
</svg>
