<svg width="196" height="37" viewBox="0 0 196 37" fill="none" xmlns="http://www.w3.org/2000/svg">
<path d="M9.57341 27.551C7.07807 27.551 5.04507 27 3.47441 25.898C1.90374 24.796 0.941073 23.2443 0.586406 21.243L4.65241 20.616C4.90574 21.68 5.48841 22.5223 6.40041 23.143C7.32507 23.751 8.47141 24.055 9.83941 24.055C11.0807 24.055 12.0497 23.8017 12.7464 23.295C13.4557 22.7883 13.8104 22.0917 13.8104 21.205C13.8104 20.6857 13.6837 20.2677 13.4304 19.951C13.1897 19.6217 12.6767 19.3113 11.8914 19.02C11.1061 18.7287 9.90907 18.3677 8.30041 17.937C6.53974 17.481 5.14007 16.9933 4.10141 16.474C3.07541 15.942 2.34074 15.3277 1.89741 14.631C1.46674 13.9217 1.25141 13.0667 1.25141 12.066C1.25141 10.8247 1.58074 9.74167 2.23941 8.817C2.89807 7.89233 3.82274 7.17667 5.01341 6.67C6.21674 6.16333 7.62274 5.91 9.23141 5.91C10.8021 5.91 12.2017 6.157 13.4304 6.651C14.6591 7.145 15.6534 7.848 16.4134 8.76C17.1734 9.65933 17.6294 10.717 17.7814 11.933L13.7154 12.674C13.5761 11.686 13.1137 10.907 12.3284 10.337C11.5431 9.767 10.5234 9.45667 9.26941 9.406C8.06607 9.35533 7.09074 9.558 6.34341 10.014C5.59607 10.4573 5.22241 11.0717 5.22241 11.857C5.22241 12.313 5.36174 12.6993 5.64041 13.016C5.93174 13.3327 6.48907 13.6367 7.31241 13.928C8.13574 14.2193 9.35174 14.5677 10.9604 14.973C12.6831 15.4163 14.0511 15.9103 15.0644 16.455C16.0777 16.987 16.7997 17.6267 17.2304 18.374C17.6737 19.1087 17.8954 20.0017 17.8954 21.053C17.8954 23.0797 17.1544 24.6693 15.6724 25.822C14.2031 26.9747 12.1701 27.551 9.57341 27.551ZM31.2005 27.57C29.1611 27.57 27.3688 27.1267 25.8235 26.24C24.2908 25.3407 23.0938 24.093 22.2325 22.497C21.3838 20.8883 20.9595 19.0263 20.9595 16.911C20.9595 14.669 21.3775 12.7247 22.2135 11.078C23.0621 9.43133 24.2401 8.15833 25.7475 7.259C27.2548 6.35967 29.0091 5.91 31.0105 5.91C33.1005 5.91 34.8801 6.39767 36.3495 7.373C37.8188 8.33567 38.9145 9.71 39.6365 11.496C40.3711 13.282 40.6625 15.4037 40.5105 17.861H36.5395V16.417C36.5141 14.0357 36.0581 12.275 35.1715 11.135C34.2975 9.995 32.9611 9.425 31.1625 9.425C29.1738 9.425 27.6791 10.052 26.6785 11.306C25.6778 12.56 25.1775 14.3713 25.1775 16.74C25.1775 18.9947 25.6778 20.7427 26.6785 21.984C27.6791 23.2127 29.1231 23.827 31.0105 23.827C32.2518 23.827 33.3221 23.5483 34.2215 22.991C35.1335 22.421 35.8428 21.6103 36.3495 20.559L40.2445 21.794C39.4465 23.6307 38.2368 25.0557 36.6155 26.069C34.9941 27.0697 33.1891 27.57 31.2005 27.57ZM23.8855 17.861V14.764H38.5345V17.861H23.8855ZM53.5513 27.57C51.4486 27.57 49.6626 27.1013 48.1933 26.164C46.7239 25.2267 45.5966 23.941 44.8113 22.307C44.0386 20.673 43.6459 18.8173 43.6333 16.74C43.6459 14.6247 44.0513 12.7563 44.8493 11.135C45.6473 9.501 46.7873 8.22167 48.2693 7.297C49.7513 6.37233 51.5309 5.91 53.6083 5.91C55.8503 5.91 57.7629 6.46733 59.3463 7.582C60.9423 8.69667 61.9936 10.223 62.5003 12.161L58.5483 13.301C58.1556 12.1483 57.5096 11.2553 56.6103 10.622C55.7236 9.976 54.7039 9.653 53.5513 9.653C52.2466 9.653 51.1763 9.96333 50.3403 10.584C49.5043 11.192 48.8836 12.028 48.4783 13.092C48.0729 14.156 47.8639 15.372 47.8513 16.74C47.8639 18.8553 48.3453 20.5653 49.2953 21.87C50.2579 23.1747 51.6766 23.827 53.5513 23.827C54.8306 23.827 55.8629 23.5357 56.6483 22.953C57.4463 22.3577 58.0543 21.509 58.4723 20.407L62.5003 21.357C61.8289 23.3583 60.7206 24.8973 59.1753 25.974C57.6299 27.038 55.7553 27.57 53.5513 27.57ZM66.3709 27V6.48H69.9049V11.458L69.4109 10.812C69.6643 10.1533 69.9936 9.55167 70.3989 9.007C70.8043 8.44967 71.2729 7.99367 71.8049 7.639C72.3243 7.259 72.9006 6.96767 73.5339 6.765C74.1799 6.54967 74.8386 6.423 75.5099 6.385C76.1813 6.33433 76.8273 6.366 77.4479 6.48V10.204C76.7766 10.0267 76.0293 9.976 75.2059 10.052C74.3953 10.128 73.6479 10.3877 72.9639 10.831C72.3179 11.249 71.8049 11.7557 71.4249 12.351C71.0576 12.9463 70.7916 13.6113 70.6269 14.346C70.4623 15.068 70.3799 15.8343 70.3799 16.645V27H66.3709ZM89.7962 27.57C87.7568 27.57 85.9645 27.1267 84.4192 26.24C82.8865 25.3407 81.6895 24.093 80.8282 22.497C79.9795 20.8883 79.5552 19.0263 79.5552 16.911C79.5552 14.669 79.9732 12.7247 80.8092 11.078C81.6578 9.43133 82.8358 8.15833 84.3432 7.259C85.8505 6.35967 87.6048 5.91 89.6062 5.91C91.6962 5.91 93.4758 6.39767 94.9452 7.373C96.4145 8.33567 97.5102 9.71 98.2322 11.496C98.9668 13.282 99.2582 15.4037 99.1062 17.861H95.1352V16.417C95.1098 14.0357 94.6538 12.275 93.7672 11.135C92.8932 9.995 91.5568 9.425 89.7582 9.425C87.7695 9.425 86.2748 10.052 85.2742 11.306C84.2735 12.56 83.7732 14.3713 83.7732 16.74C83.7732 18.9947 84.2735 20.7427 85.2742 21.984C86.2748 23.2127 87.7188 23.827 89.6062 23.827C90.8475 23.827 91.9178 23.5483 92.8172 22.991C93.7292 22.421 94.4385 21.6103 94.9452 20.559L98.8402 21.794C98.0422 23.6307 96.8325 25.0557 95.2112 26.069C93.5898 27.0697 91.7848 27.57 89.7962 27.57ZM82.4812 17.861V14.764H97.1302V17.861H82.4812ZM115.111 27C113.819 27.2533 112.552 27.361 111.311 27.323C110.07 27.285 108.961 27.0443 107.986 26.601C107.011 26.1577 106.276 25.461 105.782 24.511C105.339 23.6623 105.098 22.801 105.06 21.927C105.035 21.0403 105.022 20.0397 105.022 18.925V0.779998H109.012V18.735C109.012 19.5583 109.018 20.274 109.031 20.882C109.056 21.49 109.189 22.003 109.43 22.421C109.886 23.2063 110.608 23.656 111.596 23.77C112.597 23.8713 113.768 23.827 115.111 23.637V27ZM101.089 9.672V6.48H115.111V9.672H101.089ZM127.094 27.551C124.688 27.551 122.705 27.0317 121.147 25.993C119.602 24.9543 118.652 23.5103 118.297 21.661L121.147 21.186C121.451 22.3513 122.142 23.2823 123.218 23.979C124.308 24.663 125.65 25.005 127.246 25.005C128.804 25.005 130.033 24.682 130.932 24.036C131.832 23.3773 132.281 22.4843 132.281 21.357C132.281 20.7237 132.136 20.2107 131.844 19.818C131.566 19.4127 130.989 19.039 130.115 18.697C129.241 18.355 127.937 17.9497 126.201 17.481C124.339 16.9743 122.883 16.4677 121.831 15.961C120.78 15.4543 120.033 14.8717 119.589 14.213C119.146 13.5417 118.924 12.7247 118.924 11.762C118.924 10.5967 119.254 9.577 119.912 8.703C120.571 7.81633 121.483 7.13233 122.648 6.651C123.814 6.157 125.169 5.91 126.714 5.91C128.26 5.91 129.64 6.16333 130.856 6.67C132.085 7.164 133.073 7.86067 133.82 8.76C134.568 9.65933 135.011 10.7043 135.15 11.895L132.3 12.408C132.11 11.2047 131.509 10.2547 130.495 9.558C129.495 8.84867 128.222 8.48133 126.676 8.456C125.22 8.418 124.035 8.69667 123.123 9.292C122.211 9.87467 121.755 10.6537 121.755 11.629C121.755 12.1737 121.92 12.6423 122.249 13.035C122.579 13.415 123.174 13.776 124.035 14.118C124.909 14.46 126.151 14.8337 127.759 15.239C129.647 15.7203 131.129 16.227 132.205 16.759C133.282 17.291 134.048 17.918 134.504 18.64C134.96 19.362 135.188 20.255 135.188 21.319C135.188 23.257 134.466 24.7833 133.022 25.898C131.591 27 129.615 27.551 127.094 27.551ZM148.617 27.57C146.73 27.57 145.134 27.095 143.829 26.145C142.525 25.1823 141.537 23.884 140.865 22.25C140.194 20.6033 139.858 18.7603 139.858 16.721C139.858 14.6437 140.194 12.7943 140.865 11.173C141.549 9.539 142.55 8.25333 143.867 7.316C145.185 6.37867 146.806 5.91 148.731 5.91C150.606 5.91 152.215 6.385 153.557 7.335C154.9 8.285 155.926 9.577 156.635 11.211C157.357 12.845 157.718 14.6817 157.718 16.721C157.718 18.773 157.357 20.616 156.635 22.25C155.913 23.884 154.875 25.1823 153.519 26.145C152.164 27.095 150.53 27.57 148.617 27.57ZM139.383 36.12V6.48H141.891V21.927H142.195V36.12H139.383ZM148.332 24.967C149.764 24.967 150.954 24.606 151.904 23.884C152.854 23.162 153.564 22.1803 154.032 20.939C154.514 19.685 154.754 18.279 154.754 16.721C154.754 15.1757 154.52 13.7823 154.051 12.541C153.583 11.2997 152.867 10.318 151.904 9.596C150.954 8.874 149.745 8.513 148.275 8.513C146.844 8.513 145.653 8.86133 144.703 9.558C143.766 10.2547 143.063 11.2237 142.594 12.465C142.126 13.6937 141.891 15.1123 141.891 16.721C141.891 18.3043 142.126 19.723 142.594 20.977C143.063 22.2183 143.772 23.1937 144.722 23.903C145.672 24.6123 146.876 24.967 148.332 24.967ZM170.459 27.57C168.42 27.57 166.678 27.1077 165.234 26.183C163.79 25.2583 162.682 23.979 161.909 22.345C161.137 20.711 160.75 18.8363 160.75 16.721C160.75 14.5677 161.143 12.6803 161.928 11.059C162.714 9.43767 163.828 8.17733 165.272 7.278C166.729 6.366 168.458 5.91 170.459 5.91C172.511 5.91 174.259 6.37233 175.703 7.297C177.16 8.209 178.268 9.482 179.028 11.116C179.801 12.7373 180.187 14.6057 180.187 16.721C180.187 18.8743 179.801 20.768 179.028 22.402C178.256 24.0233 177.141 25.29 175.684 26.202C174.228 27.114 172.486 27.57 170.459 27.57ZM170.459 24.891C172.739 24.891 174.437 24.1373 175.551 22.63C176.666 21.11 177.223 19.1403 177.223 16.721C177.223 14.2383 176.66 12.2623 175.532 10.793C174.418 9.32367 172.727 8.589 170.459 8.589C168.927 8.589 167.66 8.93733 166.659 9.634C165.671 10.318 164.93 11.2743 164.436 12.503C163.955 13.719 163.714 15.125 163.714 16.721C163.714 19.191 164.284 21.1733 165.424 22.668C166.564 24.15 168.243 24.891 170.459 24.891ZM195.551 27C194.398 27.2407 193.258 27.3357 192.131 27.285C191.016 27.2343 190.015 26.9937 189.129 26.563C188.255 26.1323 187.59 25.461 187.134 24.549C186.766 23.789 186.564 23.0227 186.526 22.25C186.5 21.4647 186.488 20.5717 186.488 19.571V0.779998H189.262V19.457C189.262 20.3183 189.268 21.0403 189.281 21.623C189.306 22.193 189.439 22.6997 189.68 23.143C190.136 23.9917 190.858 24.4983 191.846 24.663C192.846 24.8277 194.081 24.7897 195.551 24.549V27ZM182.099 8.874V6.48H195.551V8.874H182.099Z" fill="black"/>
</svg>
